name analog
datacolumns 19
datarows 18
range 0.2235 0.232
endheader
time	ground_force_vx	ground_force_vy	ground_force_vz	ground_force_px	ground_force_py	ground_force_pz	l_ground_force_vx	l_ground_force_vy	l_ground_force_vz	l_ground_force_px	l_ground_force_py	l_ground_force_pz	ground_torque_x	ground_torque_y	ground_torque_z	l_ground_torque_x	l_ground_torque_y	l_ground_torque_z
0.2235	-0.0	-0.0	-0.0	-3.985139131546021	35.235816955566406	-375.4302978515625	1.3295724391937256	-40.53965759277344	-404.0790710449219	-0.0	-0.0	-0.0	-0.0	-0.0	-0.0	104855.6328125	2832.92578125	-4557.7158203125
0.224	-0.0	-0.0	-0.0	-4.194186687469482	35.08551788330078	-375.5513916015625	1.6271460056304932	-40.57104110717773	-404.6713562011719	-0.0	-0.0	-0.0	-0.0	-0.0	-0.0	104792.65625	2828.108154296875	-4547.353515625
0.2245	-0.0	-0.0	-0.0	-3.7732977867126474	34.968360900878906	-375.0882263183594	1.3598037958145142	-40.482906341552734	-404.4322814941406	-0.0	-0.0	-0.0	-0.0	-0.0	-0.0	104941.40625	3047.46630859375	-4626.7314453125
0.225	-0.0	-0.0	-0.0	-4.0190300941467285	35.20499038696289	-373.6643676757813	1.2128465175628662	-40.568634033203125	-403.8428955078125	-0.0	-0.0	-0.0	-0.0	-0.0	-0.0	104901.4375	3116.42333984375	-4587.43603515625
0.2255	-0.0	-0.0	-0.0	-4.583745956420898	34.88236618041992	-373.54876708984375	0.8274738788604736	-40.247215270996094	-404.305908203125	-0.0	-0.0	-0.0	-0.0	-0.0	-0.0	104970.5625	2726.1240234375	-4666.3935546875
0.226	-0.0	-0.0	-0.0	-4.726441383361816	35.35391616821289	-374.5948791503906	0.9177399277687072	-40.0996322631836	-406.1838989257813	-0.0	-0.0	-0.0	-0.0	-0.0	-0.0	105186.875	3081.57177734375	-4755.77880859375
0.2265	-0.0	-0.0	-0.0	-5.1723809242248535	35.47755432128906	-376.2591857910156	0.5595613718032837	-39.98085021972656	-405.35162353515625	-0.0	-0.0	-0.0	-0.0	-0.0	-0.0	105573.4140625	3079.429931640625	-4785.09765625
0.227	-0.0	-0.0	-0.0	-5.501952171325684	35.206512451171875	-375.4302978515625	0.5902130603790283	-40.07276153564453	-406.4054565429688	-0.0	-0.0	-0.0	-0.0	-0.0	-0.0	105645.25	3160.819091796875	-4697.275390625
0.2275	-0.0	-0.0	-0.0	-5.468877792358398	35.0633544921875	-378.8550415039063	0.6209754943847656	-39.53741836547852	-407.353515625	-0.0	-0.0	-0.0	-0.0	-0.0	-0.0	105748.3203125	3104.5888671875	-4636.5556640625
0.228	-0.0	-0.0	-0.0	-5.292444229125977	34.97025680541992	-376.843017578125	0.7694978713989258	-39.47779083251953	-406.9891357421875	-0.0	-0.0	-0.0	-0.0	-0.0	-0.0	105790.75	3191.15185546875	-4648.08056640625
0.2285	-0.0	-0.0	-0.0	-4.8173675537109375	34.640525817871094	-376.843017578125	1.0356634855270386	-39.59896087646485	-407.3546447753906	-0.0	-0.0	-0.0	-0.0	-0.0	-0.0	105533.7109375	3050.41845703125	-4656.92333984375
0.229	-0.0	-0.0	-0.0	-5.323668956756592	34.82105255126953	-378.1410827636719	1.3927345275878906	-38.94986724853516	-406.4124755859375	-0.0	-0.0	-0.0	-0.0	-0.0	-0.0	105583.0546875	3011.770263671875	-4448.86572265625
0.2295	-0.0	-0.0	-0.0	-5.617823600769043	34.315208435058594	-378.2364196777344	1.8030154705047607	-38.62525177001953	-405.015869140625	-0.0	-0.0	-0.0	-0.0	-0.0	-0.0	105344.609375	2916.266357421875	-4477.39501953125
0.23	-0.0	-0.0	-0.0	-5.381516933441162	34.3754768371582	-378.3801574707031	2.042772054672241	-38.453399658203125	-404.3271179199219	-0.0	-0.0	-0.0	-0.0	-0.0	-0.0	105072.34375	2989.061767578125	-4301.603515625
0.2305	-0.0	-0.0	-0.0	-5.29227876663208	34.31783676147461	-376.9364013671875	2.040348052978516	-38.12886047363281	-403.26025390625	-0.0	-0.0	-0.0	-0.0	-0.0	-0.0	104943.0546875	3103.37548828125	-4230.1357421875
0.231	-0.0	-0.0	-0.0	-5.7753586769104	34.4619255065918	-375.8975524902344	2.6378655433654785	-37.85622024536133	-402.5924682617188	-0.0	-0.0	-0.0	-0.0	-0.0	-0.0	104461.5390625	2824.7998046875	-4190.369140625
0.2315	-0.0	-0.0	-0.0	-4.546875	34.28358840942383	-375.31634521484375	2.629931926727295	-37.303009033203125	-401.74993896484375	-0.0	-0.0	-0.0	-0.0	-0.0	-0.0	104657.7421875	2594.94287109375	-4131.81982421875
0.232	-0.0	-0.0	-0.0	-4.972923278808594	33.57637405395508	-374.1663513183594	2.956087827682495	-37.39138412475586	-400.3752746582031	-0.0	-0.0	-0.0	-0.0	-0.0	-0.0	104527.6796875	2766.56005859375	-4051.278564453125
